# xmcd
#
# Track frame offsets:
#	150
#	15030
#	30551
#	45640
#	62860
#	82435
#	86991
#	103765
#	118687
#	132717
#	149436
#	169861
#	183306
#
# Disc length: 2487 seconds
#
# Revision: 0
# Processed by: cddbd v1.5.1PL0 Copyright (c) Steve Scherf et al.
# Submitted via: EasyCDDAExtractor 8.0.2.1
#
DISCID=ba09b50d
DTITLE=Foxy Brown - Ill Na Na
DYEAR=1996
DGENRE=Hip-Hop
TTITLE0=Intro...Chicken Coop
TTITLE1=(Holy Matrimony) Letter To The Firm
TTITLE2=Foxy's Bells
TTITLE3=Get Me Home (Featuring Blackstreet)
TTITLE4=The Promise (Featuring Havoc)
TTITLE5=Interlude...The Set Up
TTITLE6=If I...
TTITLE7=The Chase
TTITLE8=Ill Na Na (Featuring Method Man)
TTITLE9=No One's
TTITLE10=Fox Boogie (Featuring Kid Capri)
TTITLE11=I'll Be (Featuring Jay-Z)
TTITLE12=Outro
EXTD=
EXTT0=
EXTT1=
EXTT2=
EXTT3=
EXTT4=
EXTT5=
EXTT6=
EXTT7=
EXTT8=
EXTT9=
EXTT10=
EXTT11=
EXTT12=
PLAYORDER=
